<?xml version="1.0" encoding="UTF-8"?>
<svg width="53px" height="53px" viewBox="0 0 53 53" version="1.1" xmlns="http://www.w3.org/2000/svg" xmlns:xlink="http://www.w3.org/1999/xlink">
    <!-- Generator: Sketch 56 (81588) - https://sketch.com -->
    <title>poll icon</title>
    <desc>Created with Sketch.</desc>
    <g id="Mobile-app" stroke="none" stroke-width="1" fill="none" fill-rule="evenodd">
        <g id="event-add-screen" transform="translate(-50.000000, -275.000000)" fill="#14B0BB" fill-rule="nonzero">
            <g id="Group-Copy" transform="translate(16.000000, 256.000000)">
                <path d="M80.8748882,19.2501162 C83.9803496,19.2501162 86.4998748,21.7696415 86.4998748,24.8751028 L86.4998748,66.1250045 C86.4998748,69.2304658 83.9803496,71.7499911 80.8748882,71.7499911 L39.6249866,71.7499911 C36.5195252,71.7499911 34,69.2304658 34,66.1250045 L34,24.8751028 C34,21.7696415 36.5195252,19.2501162 39.6249866,19.2501162 L80.8748882,19.2501162 Z M80.8748882,66.1250045 L80.8748882,24.8751028 L39.6249866,24.8751028 L39.6249866,66.1250045 L80.8748882,66.1250045 Z M48.0624665,60.5000179 C47.0265498,60.5000179 46.1874709,59.6609391 46.1874709,58.6250224 L46.1874709,43.6250581 C46.1874709,42.5891414 47.0265498,41.7500626 48.0624665,41.7500626 L49.937462,41.7500626 C50.9733787,41.7500626 51.8124575,42.5891414 51.8124575,43.6250581 L51.8124575,58.6250224 C51.8124575,59.6609391 50.9733787,60.5000179 49.937462,60.5000179 L48.0624665,60.5000179 Z M59.3124397,60.5000179 C58.2765229,60.5000179 57.4374441,59.6609391 57.4374441,58.6250224 L57.4374441,32.3750849 C57.4374441,31.3391682 58.2765229,30.5000894 59.3124397,30.5000894 L61.1874352,30.5000894 C62.2233519,30.5000894 63.0624307,31.3391682 63.0624307,32.3750849 L63.0624307,58.6250224 C63.0624307,59.6609391 62.2233519,60.5000179 61.1874352,60.5000179 L59.3124397,60.5000179 Z M70.5624128,60.5000179 C69.5264961,60.5000179 68.6874173,59.6609391 68.6874173,58.6250224 L68.6874173,51.1250402 C68.6874173,50.0891235 69.5264961,49.2500447 70.5624128,49.2500447 L72.4374084,49.2500447 C73.4733251,49.2500447 74.3124039,50.0891235 74.3124039,51.1250402 L74.3124039,58.6250224 C74.3124039,59.6609391 73.4733251,60.5000179 72.4374084,60.5000179 L70.5624128,60.5000179 Z" id="poll-icon"></path>
            </g>
        </g>
    </g>
</svg>