<?xml version="1.0" encoding="UTF-8"?>
<svg width="42px" height="61px" viewBox="0 0 42 61" version="1.1" xmlns="http://www.w3.org/2000/svg" xmlns:xlink="http://www.w3.org/1999/xlink">
    <!-- Generator: Sketch 56 (81588) - https://sketch.com -->
    <title>offer icon</title>
    <desc>Created with Sketch.</desc>
    <g id="Mobile-app" stroke="none" stroke-width="1" fill="none" fill-rule="evenodd">
        <g id="event-add-screen" transform="translate(-55.000000, -381.000000)" fill="#14B0BB" fill-rule="nonzero">
            <g id="Group-Copy-2" transform="translate(16.000000, 364.000000)">
                <path d="M59.6249508,26.8751028 C60.6608675,26.8751028 61.4999464,27.7141816 61.4999464,28.7500983 C61.4999464,29.7860151 60.6608675,30.6250939 59.6249508,30.6250939 C55.4905536,30.6250939 52.1249687,33.98839 52.1249687,38.125076 C52.1249687,39.1609927 51.2858899,40.0000715 50.2499732,40.0000715 C49.2140565,40.0000715 48.3749776,39.1609927 48.3749776,38.125076 C48.3749776,31.9211342 53.421009,26.8751028 59.6249508,26.8751028 Z M50.2569541,71.3089721 L50.252262,66.2488645 L68.9976397,66.2488645 L68.9916887,71.3089721 C68.9905443,71.6768988 68.8815968,72.0378446 68.6776636,72.3448888 L65.8054323,76.6620477 C65.4585627,77.1846981 64.8726266,77.4988377 64.2444619,77.4988377 L55.0042953,77.4988377 C54.377275,77.4988377 53.7913389,77.1846981 53.4433249,76.6620477 L50.5710936,72.3448888 C50.366016,72.0378446 50.2569541,71.6781576 50.2569541,71.3089721 Z M59.6249508,17.5001252 C71.0155716,17.5001252 80.2499017,26.7344553 80.2499017,38.125076 C80.2499017,43.3246867 78.322149,48.0683659 75.1464211,51.6941888 C73.1963525,53.9183428 70.1378118,58.5836301 69.0034761,62.4941814 L69.0034761,62.5000179 L63.3784895,62.5000179 L63.3784895,62.4883449 C63.3789473,62.0146751 63.4955623,61.2639445 63.6386131,60.8124761 C64.3041999,58.704365 66.3327748,53.2129306 70.9158938,47.9851675 C73.3077032,45.2558726 74.6249151,41.7543322 74.6249151,38.125076 C74.6249151,29.8539928 67.896034,23.1251118 59.6249508,23.1251118 C51.6233754,23.1251118 44.6073627,29.4954503 44.6308231,38.125076 C44.6413516,41.7567354 45.9281222,45.2395076 48.3351523,47.9851675 C52.9464237,53.2469195 54.9656144,58.7500268 55.6206727,60.8370809 C55.7882138,61.3715187 55.8714121,61.9270136 55.872671,62.4859417 L55.872671,62.5000179 L50.2476844,62.5000179 L50.2476844,62.493037 C49.1132342,58.5836301 46.0546936,53.9183428 44.104625,51.6930444 C40.9277527,48.0683659 39,43.3246867 39,38.125076 C39,27.2231168 47.6390099,17.5001252 59.6249508,17.5001252 Z" id="offer-icon"></path>
            </g>
        </g>
    </g>
</svg>